<svg width="32" height="36" viewBox="0 0 32 36" fill="none" xmlns="http://www.w3.org/2000/svg">
<path d="M25.9952 12.2127C26.0122 12.467 26.0122 12.7199 26.0122 12.9728C26.0122 20.7118 20.7152 29.6294 11.0348 29.6294C8.05242 29.6294 5.28175 28.6688 2.9502 27.0004C3.37364 27.0541 3.7814 27.073 4.22183 27.073C6.59127 27.0794 8.89362 26.1983 10.7578 24.5718C9.65918 24.5497 8.59424 24.1467 7.71163 23.419C6.82901 22.6912 6.17279 21.6752 5.83458 20.5127C6.16 20.5664 6.48673 20.6028 6.82914 20.6028C7.30094 20.6028 7.77536 20.5301 8.21579 20.4037C7.02356 20.136 5.95151 19.4174 5.18192 18.37C4.41233 17.3226 3.99272 16.0112 3.99443 14.6586V14.586C4.69625 15.0205 5.51046 15.2923 6.37303 15.3286C5.65042 14.7946 5.0579 14.0701 4.64833 13.2195C4.23877 12.369 4.0249 11.4189 4.02579 10.4541C4.02579 9.36704 4.28587 8.37005 4.74199 7.50096C6.06478 9.31039 7.71459 10.7907 9.58458 11.8459C11.4546 12.9012 13.503 13.5079 15.5973 13.6268C15.5163 13.1908 15.4666 12.7388 15.4666 12.2853C15.4663 11.5165 15.6022 10.7551 15.8666 10.0446C16.1311 9.33423 16.5188 8.68873 17.0077 8.14506C17.4966 7.60139 18.0771 7.1702 18.7159 6.87614C19.3548 6.58208 20.0395 6.43092 20.7309 6.43131C22.2469 6.43131 23.6153 7.13763 24.5772 8.27995C25.7557 8.02651 26.8859 7.54808 27.9177 6.86585C27.5248 8.21864 26.7019 9.36574 25.6031 10.0923C26.6484 9.95968 27.6699 9.65401 28.6339 9.18538C27.9139 10.3525 27.0218 11.3761 25.9952 12.2127V12.2127Z" fill="#ECFFEB"/>
</svg>
