<svg width="32" height="36" viewBox="0 0 32 36" fill="none" xmlns="http://www.w3.org/2000/svg">
<path d="M26.6121 15.2535H15.7293V20.269H21.9921C21.4092 23.4562 18.9692 25.2874 15.7293 25.2874C14.8228 25.2891 13.9248 25.0918 13.087 24.7067C12.2491 24.3217 11.4879 23.7565 10.8469 23.0436C10.2059 22.3306 9.69782 21.484 9.35172 20.5522C9.00563 19.6205 8.82836 18.6219 8.83008 17.6138C8.82853 16.6058 9.00593 15.6073 9.3521 14.6757C9.69827 13.7441 10.2064 12.8977 10.8474 12.1849C11.4883 11.4721 12.2495 10.9071 13.0873 10.5221C13.925 10.1372 14.8229 9.93989 15.7293 9.94161C17.3747 9.94161 18.862 10.5912 20.0291 11.6536L23.4271 7.87642C21.3569 5.86937 18.7026 4.63113 15.7293 4.63113C14.1948 4.62614 12.6744 4.95858 11.2558 5.60932C9.83717 6.26007 8.54823 7.21628 7.46311 8.42296C6.37799 9.62963 5.51811 11.063 4.93293 12.6405C4.34774 14.2181 4.04879 15.9087 4.05328 17.6152C4.04862 19.3218 4.34745 21.0125 4.93257 22.5901C5.5177 24.1678 6.37757 25.6012 7.46272 26.8079C8.54787 28.0146 9.83688 28.9708 11.2556 29.6215C12.6743 30.2722 14.1947 30.6045 15.7293 30.5993C21.5674 30.5993 26.8761 25.8774 26.8761 17.6152C26.8761 16.8479 26.7702 16.0209 26.6121 15.2535Z" fill="#ECFFEB"/>
</svg>
