<svg width="32" height="36" viewBox="0 0 32 36" fill="none" xmlns="http://www.w3.org/2000/svg">
<path d="M16.001 3.49994C8.7842 3.49994 2.93311 10.0065 2.93311 18.0318C2.93311 25.284 7.71122 31.295 13.9596 32.3893V22.2334H10.64V18.0318H13.9596V14.8301C13.9596 11.1852 15.9109 9.17521 18.8946 9.17521C20.3243 9.17521 21.8221 9.45861 21.8221 9.45861V13.0324H20.1701C18.5495 13.0324 18.0424 14.1543 18.0424 15.3039V18.0289H21.6639L21.085 22.2305H18.0424V32.3864C24.2909 31.2979 29.069 25.2854 29.069 18.0318C29.069 10.0065 23.2179 3.49994 16.001 3.49994V3.49994Z" fill="#ECFFEB"/>
</svg>
