<svg width="39" height="32" viewBox="0 0 39 32" fill="none" xmlns="http://www.w3.org/2000/svg">
<path fill-rule="evenodd" clip-rule="evenodd" d="M0 32L19.5579 0L39 32H14.3364L14.3501 20.3852H16.7804C16.7804 20.3852 15.8 25.4944 16.7804 26.5C17.7608 27.5056 20.6605 27.5056 21.641 26.5C22.6214 25.4944 21.641 20.3852 21.641 20.3852H23.9555V30.1037C39 30.1037 31.64 20.3852 19.8047 8.24641V8.24104L19.5601 7.82596L4.74671 32H0ZM16.7804 27.8604C15.4255 26.4707 15.7671 29.2074 16.7804 30.1037C17.7938 31 20.475 31.25 21.641 30.1037C22.8069 28.9574 22.9962 26.4701 21.641 27.8601C20.2858 29.25 18.1353 29.25 16.7804 27.8604Z" fill="#ECFFEB"/>
</svg>
