<svg width="19" height="17" viewBox="0 0 19 17" fill="none" xmlns="http://www.w3.org/2000/svg">
<path fill-rule="evenodd" clip-rule="evenodd" d="M0.0620117 7.26962C0.0620117 3.26132 3.61214 0 7.97539 0C12.3386 0 15.8887 3.26132 15.8887 7.26962C15.8883 8.88296 15.3002 10.4497 14.218 11.7204L18.5664 15.7151L17.1677 17L12.8193 13.0053C11.4363 13.9989 9.73114 14.5389 7.97539 14.5392C3.61214 14.5392 0.0620117 11.2779 0.0620117 7.26962ZM7.91884 11.891C10.7284 11.891 13.006 9.79868 13.006 7.21767C13.006 4.63666 10.7284 2.54435 7.91884 2.54435C5.10926 2.54435 2.83167 4.63666 2.83167 7.21767C2.83167 9.79868 5.10926 11.891 7.91884 11.891Z" fill="#5220A5"/>
</svg>
