<svg width="18" height="20" viewBox="0 0 18 20" fill="none" xmlns="http://www.w3.org/2000/svg">
<g clip-path="url(#clip0)">
<path d="M2.0646 3.29774C1.55109 3.29774 1.05862 3.52459 0.695513 3.92837C0.332408 4.33215 0.128418 4.8798 0.128418 5.45083L0.128418 15.1397C0.128418 15.7108 0.332408 16.2584 0.695513 16.6622C1.05862 17.066 1.55109 17.2928 2.0646 17.2928H5.45292V3.29774H2.0646Z" fill="#006847"/>
<path d="M15.6178 3.29774H12.2295V17.2928H15.6178C16.1313 17.2928 16.6238 17.066 16.9869 16.6622C17.35 16.2584 17.554 15.7108 17.554 15.1397V5.45083C17.554 4.8798 17.35 4.33215 16.9869 3.92837C16.6238 3.52459 16.1313 3.29774 15.6178 3.29774V3.29774Z" fill="#CE1126"/>
<path d="M5.45312 3.29774H12.2298V17.2928H5.45312V3.29774Z" fill="#EEEEEE"/>
<path d="M11.2615 10.2953C11.2615 11.0091 11.0065 11.6936 10.5526 12.1984C10.0988 12.7031 9.48317 12.9867 8.84129 12.9867C8.1994 12.9867 7.58381 12.7031 7.12993 12.1984C6.67605 11.6936 6.42106 11.0091 6.42106 10.2953H5.93701C5.93701 11.1518 6.243 11.9733 6.78765 12.579C7.33231 13.1847 8.07103 13.5249 8.84129 13.5249C9.61155 13.5249 10.3503 13.1847 10.8949 12.579C11.4396 11.9733 11.7456 11.1518 11.7456 10.2953H11.2615Z" fill="#A6D388"/>
<path d="M6.68391 11.5166C6.66956 11.485 6.64972 11.4569 6.62554 11.4339C6.60135 11.4108 6.57331 11.3934 6.54302 11.3825C6.51273 11.3715 6.4808 11.3674 6.44907 11.3703C6.41734 11.3732 6.38644 11.383 6.35815 11.3993C6.32978 11.4153 6.30453 11.4374 6.28384 11.4643C6.26315 11.4912 6.24744 11.5223 6.23759 11.556C6.22775 11.5896 6.22396 11.6251 6.22646 11.6604C6.22896 11.6956 6.23768 11.73 6.25214 11.7615C6.29571 11.8568 6.34363 11.9499 6.39542 12.0393V12.0398L6.39736 12.0431V12.0436L6.40123 12.0495V12.0501L6.40268 12.0533L6.40316 12.0544L6.4051 12.0571V12.0576L6.40655 12.0603V12.0614L6.408 12.0641L6.40849 12.0651L6.40994 12.0678L6.41042 12.0689L6.41188 12.0711L6.41284 12.0727L6.41381 12.0743L6.4143 12.0759L6.41575 12.0786L6.41623 12.0791L6.4172 12.0807L6.41865 12.084L6.41914 12.085L6.42059 12.0877L6.42107 12.0888L6.42446 12.0942V12.0947L6.42688 12.0985V12.099C6.45205 12.1405 6.47771 12.1803 6.50481 12.2207C6.52372 12.249 6.54745 12.2728 6.57466 12.2908C6.60186 12.3089 6.632 12.3207 6.66335 12.3258C6.6947 12.3308 6.72663 12.329 6.75732 12.3203C6.78801 12.3116 6.81685 12.2962 6.84219 12.2751C6.86771 12.254 6.88925 12.2276 6.90558 12.1973C6.9219 12.167 6.93268 12.1334 6.93732 12.0984C6.94195 12.0635 6.94033 12.0279 6.93257 11.9936C6.9248 11.9594 6.91103 11.9271 6.89205 11.8988C6.81477 11.7769 6.74522 11.6492 6.68391 11.5166V11.5166ZM6.44334 10.6651C6.4253 10.5165 6.41785 10.3666 6.42107 10.2167C6.4229 10.1454 6.3992 10.0762 6.35518 10.0243C6.31116 9.97247 6.25042 9.94214 6.18631 9.94003L6.16889 9.94057C6.1078 9.94353 6.04998 9.9721 6.00706 10.0205C5.96413 10.069 5.93929 10.1337 5.93751 10.2016C5.93638 10.2574 5.93622 10.3132 5.93703 10.369V10.4175L5.93751 10.4202V10.4352L5.938 10.4369L5.93751 10.4379V10.4395L5.938 10.4406V10.4562L5.93848 10.4579V10.4638L5.93896 10.474L5.93945 10.4788V10.4848C5.9438 10.5709 5.95155 10.6565 5.96171 10.7415C5.97072 10.8119 6.00438 10.8754 6.05534 10.9182C6.1063 10.9611 6.17043 10.9798 6.23375 10.9703C6.26557 10.9656 6.29625 10.9541 6.32403 10.9362C6.35181 10.9183 6.37614 10.8945 6.39562 10.8662C6.4151 10.8378 6.42934 10.8054 6.43753 10.7709C6.44572 10.7364 6.44769 10.7004 6.44334 10.6651V10.6651ZM9.00588 12.9797L9.00297 12.9802L8.94295 12.9845C8.8283 12.9896 8.71346 12.9859 8.59928 12.9732C8.53541 12.9661 8.47161 12.9874 8.42191 13.0326C8.37221 13.0778 8.34068 13.1431 8.33426 13.2141C8.32785 13.2851 8.34706 13.356 8.38768 13.4113C8.42831 13.4666 8.48701 13.5016 8.55087 13.5088L8.61138 13.5147L8.61332 13.5152L8.61428 13.5147L8.61574 13.5152H8.6167L8.61961 13.5158H8.62251L8.62397 13.5163H8.62445L8.62735 13.5158L8.62881 13.5163H8.63123L8.63413 13.5169L8.63655 13.5174H8.64284L8.64575 13.5179H8.65204C8.72561 13.5233 8.79967 13.526 8.87422 13.5244H8.8931L8.89648 13.5239L8.89939 13.5244H8.90665L8.90907 13.5239H8.91827L8.92117 13.5233H8.92165L8.92407 13.5239L8.92456 13.5233L8.92746 13.5239H8.92795L8.93037 13.5233H8.93424L8.93714 13.5228H8.94005L8.94053 13.5233L8.94344 13.5228H8.94682L8.94924 13.5222H8.95893L8.96135 13.5217H8.96328L8.96522 13.5212L8.96715 13.5217H8.96957L8.97151 13.5212H8.97393C8.99426 13.5206 9.01507 13.5185 9.0354 13.5174C9.09809 13.5117 9.15626 13.4789 9.1973 13.4259C9.23834 13.3729 9.25896 13.304 9.25468 13.2343C9.25343 13.1994 9.246 13.1651 9.23281 13.1334C9.21963 13.1017 9.20094 13.0732 9.17782 13.0495C9.15471 13.0259 9.12762 13.0075 9.09811 12.9955C9.06861 12.9835 9.03726 12.9781 9.00588 12.9797V12.9797ZM7.82529 12.7385C7.70322 12.6756 7.58601 12.6016 7.47484 12.5173C7.43185 12.4843 7.38035 12.4679 7.32817 12.4705C7.27749 12.4728 7.22875 12.4929 7.18886 12.5277C7.14897 12.5626 7.11993 12.6105 7.10586 12.6647C7.09179 12.7189 7.09339 12.7767 7.11044 12.8298C7.12749 12.8829 7.15912 12.9288 7.20087 12.9608L7.20136 12.9614L7.20426 12.963L7.20716 12.9662L7.21007 12.9684L7.21297 12.971C7.34173 13.0685 7.47823 13.1541 7.62054 13.2273C7.64932 13.2422 7.68047 13.2507 7.71221 13.2522C7.74394 13.2537 7.77563 13.2482 7.80545 13.236C7.83527 13.2239 7.86264 13.2053 7.88598 13.1814C7.90932 13.1574 7.92818 13.1285 7.94146 13.0965C7.95509 13.0645 7.9629 13.0299 7.96444 12.9945C7.96597 12.9592 7.9612 12.9239 7.9504 12.8906C7.9396 12.8573 7.92299 12.8267 7.90152 12.8006C7.88004 12.7745 7.85414 12.7534 7.82529 12.7385V12.7385ZM10.26 12.5243C10.2173 12.5265 10.1759 12.5414 10.14 12.5673C10.0268 12.6473 9.90799 12.717 9.78471 12.7757C9.73146 12.7992 9.68748 12.843 9.66065 12.8993C9.63383 12.9556 9.62591 13.0207 9.63832 13.0829C9.65073 13.1451 9.68266 13.2003 9.72837 13.2387C9.77409 13.2771 9.83062 13.2961 9.88781 13.2924C9.91656 13.2909 9.94487 13.284 9.97155 13.2719L10.0364 13.2396H10.0374L10.0403 13.2375L10.0413 13.237L10.0432 13.2359H10.0451L10.0471 13.2348L10.048 13.2337L10.0509 13.2332L10.0519 13.2321L10.0534 13.231L10.0558 13.23L10.0572 13.2294L10.0596 13.2283L10.0606 13.2278L10.063 13.2267L10.064 13.2262C10.0655 13.2251 10.0655 13.2246 10.0664 13.2246L10.0674 13.224L10.0703 13.2224H10.0713L10.0742 13.2208L10.0771 13.2192L10.078 13.2187L10.0805 13.217L10.0814 13.2165L10.0843 13.2149L10.0848 13.2143L10.0882 13.2138L10.0916 13.2117L10.0926 13.2111L10.0945 13.2095H10.0955L10.0984 13.2073L10.1022 13.2063L10.1051 13.2041H10.1056L10.109 13.202L10.1095 13.2014L10.1163 13.1982L10.1197 13.1966L10.1264 13.1923L10.1303 13.1907L10.1332 13.189H10.1337L10.1405 13.1847V13.1842L10.1434 13.1831H10.1439L10.1545 13.1767L10.1579 13.1756L10.1647 13.1713L10.1681 13.1691H10.1686C10.169 13.1686 10.17 13.1681 10.1719 13.1681C10.1729 13.1664 10.1739 13.1659 10.1748 13.1654L10.1787 13.1632L10.1816 13.1616V13.1611L10.1884 13.1578H10.1889L10.1923 13.1557L10.1928 13.1551L10.1952 13.1535H10.1957L10.1991 13.1514L10.202 13.1498H10.2029L10.2058 13.1476V13.1471L10.2092 13.1454L10.2097 13.1449L10.2126 13.1433V13.1428L10.2155 13.1417L10.2165 13.1411L10.2184 13.1395L10.2199 13.139L10.2223 13.1374L10.2233 13.1368L10.2257 13.1352L10.2266 13.1347L10.2295 13.1336C10.2291 13.1331 10.2295 13.1331 10.23 13.1331L10.2329 13.1314L10.2339 13.1309L10.2358 13.1293L10.2368 13.1288L10.2397 13.1271L10.2407 13.1266C10.2407 13.1255 10.2416 13.1255 10.2426 13.125L10.2441 13.1245L10.246 13.1234L10.2475 13.1223L10.2494 13.1212L10.2508 13.1201L10.2523 13.1191L10.2537 13.1175L10.2562 13.1169L10.2581 13.1164L10.2591 13.1153L10.261 13.1142L10.2629 13.1126L10.2639 13.1121L10.2658 13.111L10.2678 13.1094L10.2692 13.1083C10.2702 13.1088 10.2707 13.1083 10.2717 13.1078L10.2726 13.1067L10.2746 13.1056L10.276 13.1045L10.2775 13.1035L10.2794 13.1024L10.2813 13.1008L10.2823 13.1002C10.2833 13.0997 10.2852 13.0997 10.2862 13.0986C10.2852 13.0981 10.2852 13.0981 10.2862 13.0981L10.2881 13.097L10.2915 13.0943L10.2925 13.0938L10.2959 13.0922V13.0916L10.3017 13.0884L10.3055 13.0857C10.3085 13.0833 10.3118 13.0813 10.3152 13.0798H10.3157C10.3462 13.0593 10.3777 13.0383 10.4077 13.0168C10.4617 12.9784 10.4998 12.9177 10.5136 12.848C10.5274 12.7784 10.5157 12.7055 10.4812 12.6454C10.4558 12.607 10.4224 12.576 10.3839 12.5549C10.3454 12.5338 10.3029 12.5233 10.26 12.5243V12.5243ZM11.5045 10.0385L11.4929 10.0391C11.4307 10.042 11.3718 10.0715 11.3286 10.1214C11.2855 10.1713 11.2612 10.2379 11.261 10.3071C11.261 10.4562 11.2489 10.607 11.2262 10.7534C11.2154 10.8238 11.2302 10.8961 11.2674 10.9544C11.3046 11.0127 11.3611 11.0522 11.4244 11.0642C11.4878 11.0762 11.5528 11.0597 11.6052 11.0184C11.6577 10.977 11.6932 10.9142 11.7039 10.8438V10.8411L11.7044 10.84L11.7049 10.8389L11.7044 10.8379L11.7049 10.8368V10.8357L11.7054 10.8346V10.833L11.7059 10.832V10.8271C11.7069 10.8266 11.7069 10.8255 11.7069 10.825V10.8217C11.7172 10.7519 11.7256 10.6817 11.732 10.6113L11.7315 10.6107L11.732 10.6091V10.6086L11.7325 10.6064V10.6005L11.7335 10.5989V10.5983L11.733 10.5967V10.5956L11.7335 10.594V10.5919L11.7344 10.5913L11.7335 10.5897V10.5876C11.7344 10.587 11.7344 10.5865 11.7344 10.586V10.5757L11.7354 10.5741V10.5736C11.742 10.485 11.7454 10.3961 11.7456 10.3071C11.7454 10.236 11.72 10.1679 11.6749 10.1176C11.6297 10.0672 11.5685 10.0388 11.5045 10.0385ZM11.2901 11.4897C11.2623 11.4726 11.2317 11.4617 11.2 11.4577C11.1684 11.4538 11.1364 11.4568 11.1058 11.4666C11.0753 11.4764 11.0467 11.4928 11.0219 11.5149C10.997 11.5369 10.9763 11.5642 10.9609 11.5952C10.896 11.7263 10.821 11.8509 10.7368 11.9677C10.6973 12.0236 10.6793 12.0947 10.6867 12.1653C10.6942 12.236 10.7265 12.3005 10.7766 12.3447C10.8267 12.389 10.8905 12.4094 10.954 12.4015C11.0176 12.3936 11.0758 12.358 11.1158 12.3025C11.172 12.2239 11.2257 12.1416 11.2756 12.0576C11.2765 12.0538 11.279 12.0501 11.2809 12.0468L11.2814 12.0463L11.2833 12.0431V12.0425L11.2852 12.0388C11.2862 12.0377 11.2872 12.0366 11.2872 12.0355L11.2877 12.0361L11.2896 12.0328V12.0323C11.2905 12.0313 11.291 12.0299 11.2911 12.0285L11.292 12.028L11.294 12.0248V12.0242C11.2949 12.0237 11.2949 12.0226 11.2954 12.0215L11.2959 12.021L11.2978 12.0178L11.2983 12.0167L11.2993 12.014L11.3007 12.0129L11.3017 12.0102H11.3027L11.3036 12.007L11.3041 12.0059L11.3061 12.0038L11.3065 12.0027C11.307 12.0016 11.307 12.0005 11.308 12L11.3085 11.9984L11.3104 11.9968C11.3104 11.9962 11.3104 11.9957 11.3114 11.9952V11.993L11.3128 11.9919L11.3143 11.9892L11.3148 11.9882L11.3162 11.9849L11.3172 11.9839L11.3182 11.9817L11.3191 11.9801C11.3191 11.9795 11.3191 11.979 11.3201 11.9785C11.3201 11.9779 11.3201 11.9774 11.3211 11.9769L11.3225 11.9742L11.323 11.9725L11.324 11.9709L11.3249 11.9693C11.3259 11.9688 11.3259 11.9682 11.3259 11.9677C11.3269 11.9672 11.3269 11.9666 11.3269 11.9656L11.3278 11.9639L11.3293 11.9618L11.3307 11.9596V11.958L11.3317 11.9564L11.3332 11.9542L11.3346 11.9526V11.951L11.3366 11.9483V11.9467C11.3375 11.9462 11.338 11.9456 11.338 11.9446L11.339 11.9435L11.3399 11.9419L11.3414 11.9392L11.3424 11.9376V11.9365L11.3443 11.9338C11.3443 11.9333 11.3443 11.9327 11.3453 11.9322L11.3458 11.9306L11.3472 11.9284L11.3482 11.9263L11.3491 11.9246C11.3496 11.9241 11.3491 11.923 11.3501 11.9225C11.3501 11.922 11.3501 11.9214 11.3511 11.9214L11.352 11.9187L11.353 11.9176L11.354 11.9144L11.355 11.9139L11.3559 11.9117L11.3569 11.9106L11.3579 11.908L11.3588 11.9069L11.3598 11.9037C11.3608 11.9031 11.3598 11.9026 11.3598 11.9026L11.3617 11.8999L11.3622 11.8988L11.3641 11.8961V11.8956L11.3656 11.8923L11.3666 11.8913L11.3675 11.888V11.8875L11.37 11.8848L11.3714 11.8816V11.881L11.3733 11.8773L11.3743 11.8767L11.3864 11.8514C11.4165 11.7892 11.4232 11.7163 11.4052 11.6485C11.3871 11.5808 11.3458 11.5237 11.2901 11.4897V11.4897Z" fill="#5C913B"/>
<path d="M8.8413 12.4484C9.64329 12.4484 10.2934 12.2074 10.2934 11.9101C10.2934 11.6128 9.64329 11.3718 8.8413 11.3718C8.0393 11.3718 7.38916 11.6128 7.38916 11.9101C7.38916 12.2074 8.0393 12.4484 8.8413 12.4484Z" fill="#55ACEE"/>
<path d="M9.08349 12.4484C9.48449 12.4484 9.80956 12.2074 9.80956 11.9101C9.80956 11.6128 9.48449 11.3718 9.08349 11.3718C8.68249 11.3718 8.35742 11.6128 8.35742 11.9101C8.35742 12.2074 8.68249 12.4484 9.08349 12.4484Z" fill="#FFCC4D"/>
<path d="M9.38188 12.0576C9.34004 12.0572 9.299 12.0448 9.26271 12.0217C9.22642 11.9985 9.19611 11.9653 9.17471 11.9254C9.1533 11.8854 9.14152 11.84 9.14051 11.7934C9.13949 11.7469 9.14927 11.7009 9.1689 11.6598C9.24635 11.5016 9.32767 11.3578 9.41189 11.2319C9.34255 11.2352 9.27316 11.2368 9.20375 11.2367C9.07016 11.2367 8.94818 11.1156 8.94818 10.9671C8.94818 10.8185 9.04257 10.6979 9.17665 10.6979L9.21634 10.6985C9.35962 10.6985 9.50677 10.6888 9.63843 10.6753C9.6751 10.6712 9.71213 10.6766 9.74658 10.6912C9.78103 10.7058 9.81195 10.7291 9.83688 10.7593C9.84366 10.7534 9.85044 10.7474 9.8577 10.7426C9.9061 10.7071 9.95112 10.6785 9.99323 10.6559C10.0232 10.6303 10.0582 10.6129 10.0954 10.6053L10.1128 10.6016C10.2038 10.5687 10.2677 10.5644 10.2933 10.5644C10.3312 10.5643 10.3686 10.5741 10.4025 10.593C10.4364 10.6119 10.4657 10.6395 10.4882 10.6734C10.5107 10.7073 10.5257 10.7467 10.532 10.7883C10.5382 10.8298 10.5356 10.8725 10.5242 10.9127C10.4845 11.0559 10.396 11.0882 10.2406 11.1226C10.2 11.1407 10.1613 11.1638 10.1254 11.1915C10.0816 11.2232 10.0299 11.2385 9.97771 11.2352C9.92556 11.2319 9.87572 11.2102 9.83543 11.1732C9.86842 11.2205 9.88625 11.2788 9.88607 11.3387C9.8859 11.3985 9.86773 11.4566 9.83446 11.5037C9.75218 11.6205 9.67134 11.7594 9.59438 11.9171C9.57366 11.9597 9.54297 11.9952 9.50556 12.02C9.46815 12.0447 9.42541 12.0577 9.38188 12.0576V12.0576ZM8.69454 11.2023C8.68386 11.2024 8.67318 11.2016 8.66259 11.2001C8.4897 11.1752 8.31881 11.1354 8.15144 11.0812C8.12095 11.0711 8.09254 11.0545 8.06784 11.0322C8.04314 11.0099 8.02263 10.9825 8.00748 10.9514C7.99233 10.9203 7.98284 10.8862 7.97955 10.851C7.97626 10.8158 7.97924 10.7803 7.98831 10.7464L7.99122 10.7356L7.98541 10.748C7.96988 10.7789 7.94904 10.806 7.92406 10.8279C7.89908 10.8498 7.87047 10.866 7.83986 10.8756C7.80924 10.8852 7.77723 10.888 7.74564 10.8839C7.71405 10.8797 7.68352 10.8686 7.65577 10.8513C7.49495 10.7522 7.34722 10.6288 7.21674 10.4848C7.17266 10.434 7.14826 10.366 7.14881 10.2955C7.14937 10.2249 7.17482 10.1574 7.21969 10.1075C7.26457 10.0576 7.32527 10.0293 7.38873 10.0287C7.45218 10.0281 7.51332 10.0552 7.55896 10.1042C7.65432 10.2102 7.76614 10.3034 7.89199 10.3814C7.94131 10.4122 7.97939 10.4611 7.99964 10.5198C8.01989 10.5785 8.02102 10.6432 8.00283 10.7028C8.02826 10.6461 8.07083 10.6012 8.12306 10.576C8.1753 10.5508 8.23385 10.5469 8.28842 10.565C8.42202 10.6091 8.56868 10.643 8.72406 10.6662C8.78503 10.6748 8.84076 10.7089 8.87995 10.7615C8.91914 10.8141 8.93885 10.8814 8.9351 10.9496C8.93134 11.0178 8.90439 11.0819 8.85972 11.1288C8.81504 11.1757 8.75599 11.202 8.69454 11.2023V11.2023ZM7.50766 9.94326C7.30145 9.94326 7.03474 9.85445 6.87307 9.64237C6.62524 9.31725 6.47954 8.90009 6.50181 8.58036C6.50762 8.49477 6.43259 8.42587 6.35902 8.40434C6.3169 8.39196 6.24284 8.38443 6.20799 8.46786C6.19451 8.50027 6.17001 8.52539 6.13987 8.53771C6.10973 8.55002 6.07643 8.54852 6.04729 8.53353C6.01815 8.51854 5.99555 8.49129 5.98448 8.45778C5.97341 8.42426 5.97476 8.38723 5.98824 8.35482C6.06375 8.17235 6.23316 8.09107 6.42001 8.14382C6.59329 8.19388 6.75932 8.3672 6.74286 8.60135C6.72544 8.85003 6.85226 9.1983 7.05749 9.46797C7.16544 9.61007 7.35325 9.66767 7.48103 9.67305C7.5851 9.67897 7.63786 9.6526 7.649 9.64129C7.62189 9.5697 7.26321 9.35978 7.11025 9.27042C6.98005 9.19453 6.94132 9.0901 6.93164 9.01636C6.89921 8.77145 7.12526 8.5233 7.34405 8.28431C7.42101 8.1998 7.4941 8.12014 7.53379 8.06146C7.57881 7.99526 7.57155 7.95112 7.56284 7.92367C7.52944 7.82301 7.38471 7.72343 7.21045 7.68037C7.04926 7.64054 6.94035 7.55387 6.88711 7.42254C6.81692 7.24975 6.85419 7.02368 7.00038 6.73086C7.0081 6.71541 7.01848 6.70181 7.03093 6.69083C7.04338 6.67984 7.05766 6.67169 7.07294 6.66685C7.08822 6.662 7.10421 6.66054 7.12 6.66257C7.13579 6.66459 7.15106 6.67005 7.16495 6.67864C7.17884 6.68723 7.19107 6.69878 7.20095 6.71262C7.21083 6.72647 7.21815 6.74234 7.22251 6.75934C7.22687 6.77633 7.22818 6.79411 7.22636 6.81167C7.22454 6.82922 7.21963 6.84621 7.2119 6.86166C7.07395 7.13725 7.0875 7.26213 7.10783 7.31219C7.12816 7.36171 7.17996 7.3967 7.26273 7.41715C7.46748 7.46775 7.71386 7.60286 7.78937 7.83001C7.83245 7.95973 7.81067 8.09968 7.72741 8.22295C7.67707 8.29777 7.59769 8.38443 7.51395 8.47647C7.38907 8.61319 7.15624 8.8678 7.17124 8.9776C7.17415 9.00021 7.20077 9.02013 7.22304 9.03251C7.58656 9.24459 7.82809 9.39799 7.87747 9.58585C7.8861 9.6179 7.88875 9.65158 7.88526 9.68481C7.88176 9.71804 7.87219 9.75012 7.85714 9.77909C7.81018 9.87006 7.71241 9.92604 7.57397 9.94003C7.55316 9.94219 7.53041 9.94326 7.50766 9.94326V9.94326Z" fill="#5C913B"/>
<path d="M9.56722 10.8336C9.70088 10.8336 9.80924 10.5926 9.80924 10.2953C9.80924 9.99801 9.70088 9.75702 9.56722 9.75702C9.43355 9.75702 9.3252 9.99801 9.3252 10.2953C9.3252 10.5926 9.43355 10.8336 9.56722 10.8336Z" fill="#FFCC4D"/>
<path d="M8.49862 9.85821C8.49862 10.0132 8.33162 10.1386 8.12542 10.1386C7.9197 10.1386 7.75222 10.0132 7.75222 9.85821C7.75222 9.70319 7.91921 9.57777 8.12542 9.57777C8.33114 9.57777 8.49862 9.70319 8.49862 9.85821ZM7.92405 7.36762C7.94826 7.48174 7.81418 7.61523 7.62443 7.66529C7.43468 7.71535 7.2614 7.66313 7.23671 7.54902C7.21251 7.43437 7.34659 7.30088 7.53585 7.25082C7.72608 7.2013 7.89985 7.25297 7.92405 7.36762V7.36762Z" fill="#FFCC4D"/>
<path d="M11.0354 10.2711C11.0789 10.3088 11.153 9.87867 11.1418 9.74464C11.1418 9.73549 11.1278 9.45075 11.182 9.24728C11.2154 9.17838 11.2174 8.66433 11.1661 8.52922C11.2067 8.52546 11.2556 8.51092 11.2614 8.45602C11.0736 8.53299 11.0296 8.01625 10.849 7.71912C10.6738 7.42146 10.4564 7.24814 10.2294 7.06728C10.2483 7.01444 10.2748 6.96537 10.3078 6.92194C10.0295 7.07697 9.59581 6.51555 8.95493 6.55753C8.81117 6.57314 8.74292 6.58283 8.70613 6.6808C8.58657 6.69156 8.46508 6.72171 8.46508 6.89664C8.46508 6.93863 8.49944 7.01506 8.57592 7.0156C8.68048 7.04951 8.76567 7.02314 8.83682 7.1857L8.8557 7.35364C8.8557 7.35364 8.76228 7.22068 8.71097 7.19969L8.74243 7.1281C8.69403 7.09688 8.60835 7.12218 8.60835 7.12218C8.60835 7.12218 8.422 7.02529 8.27243 7.05113L8.24338 6.91656C8.21724 6.99945 8.15868 6.99515 8.15045 7.0732C8.13399 7.01722 8.11221 6.94778 8.09672 6.8918C8.04396 6.97146 8.05945 7.05759 8.04057 7.14048C8.02024 7.15986 7.97861 7.1604 7.96796 7.10711C7.96264 7.04144 7.95538 7.03552 7.95538 6.95747C7.91762 7.03121 7.87212 7.06728 7.85711 7.19377L7.81694 7.05382C7.81839 7.21907 7.6906 7.31757 7.56959 7.43438C7.53522 7.50435 7.57492 7.50489 7.57782 7.54096L7.64171 7.57648L7.75643 7.56733C7.77531 7.59371 7.75982 7.59586 7.80968 7.61255C7.94328 7.65399 8.10979 7.47583 8.24048 7.75627C8.18046 7.81225 8.11995 7.94305 8.13931 7.96781C8.16352 7.96781 8.09091 8.00549 8.18869 7.97104C8.08704 8.08084 8.0183 8.22564 8.0183 8.23425C8.00668 8.26547 8.05896 8.22994 8.04831 8.28646L8.07252 8.28323C7.84066 8.56206 8.06477 8.86188 8.04008 9.02282C8.07881 9.09226 8.08365 9.02121 8.13205 9.01421C8.17271 9.21229 8.28985 9.33233 8.36149 9.48896L8.21047 9.49058C8.21386 9.56486 8.27436 9.63537 8.32228 9.70051L8.22112 9.73603C8.15606 9.77209 8.09813 9.82223 8.05073 9.88352C8.01733 9.97395 8.21192 9.99548 8.30582 10.0116L8.30244 10.1209C8.4491 10.1365 8.61852 10.0881 8.61852 10.0789L8.65531 10.0472L8.73808 10.0977C8.76567 10.0977 8.80875 9.97502 8.7889 9.88083C8.84215 9.95134 8.89249 10.0649 8.94573 10.136L8.99559 10.1284C9.04109 10.2086 9.10353 10.2883 9.14903 10.3685L9.19986 10.39C9.22938 10.3787 9.25455 10.375 9.27053 10.3104L9.29376 10.3556L9.37411 10.2942L9.43026 10.2818L9.47238 10.3583C9.49706 10.348 9.52126 10.2883 9.52272 10.2248C9.54789 10.2802 9.55466 10.2759 9.57306 10.2905L9.61033 10.2033L9.81121 10.4121L9.9632 10.4218C10.0174 10.4627 10.166 10.4885 10.1912 10.4223C10.3132 10.4805 10.4569 10.4148 10.4497 10.3502C10.562 10.3997 10.7348 10.3663 10.7348 10.3583C10.7556 10.3556 10.8088 10.2974 10.7585 10.2538C10.3872 9.96641 9.83686 9.49058 9.62437 9.37593C9.62437 9.29088 9.56676 8.9846 9.50481 8.90063L9.55515 8.80697C9.69988 8.95715 9.75215 8.94262 9.82912 8.9663C9.91141 9.03897 9.93996 9.14931 10.0223 9.24997L10.0958 9.26504C10.0358 9.08991 9.94462 8.93007 9.82767 8.79513C9.90705 8.83927 10.0387 8.95715 10.1268 9.04274C10.1849 9.15093 10.2018 9.23705 10.2551 9.3727C10.2938 9.40015 10.3335 9.50081 10.3282 9.41737C10.319 9.26074 10.2197 9.01259 10.2197 8.99483C10.3775 9.1337 10.3756 9.35009 10.4235 9.48197C10.4637 9.54871 10.484 9.63807 10.5015 9.61707L10.455 9.21014L10.4279 9.06104C10.5445 9.13586 10.5862 9.42114 10.6409 9.76348C10.6409 9.81785 10.6607 9.8776 10.6578 9.91258C10.683 9.94703 10.7115 10.0423 10.711 9.98579C10.711 9.98579 10.711 9.42922 10.6767 9.30164C10.668 9.23328 10.6912 9.1224 10.6912 9.1224C10.7338 9.35332 10.7793 9.60362 10.8224 9.834V10.0036L10.8863 10.0751C10.8984 9.93519 10.9129 9.79632 10.9255 9.65744L10.8776 9.15954V9.01744C10.8766 8.96738 10.9187 8.97653 10.9453 9.03359C10.9516 9.15577 10.9516 9.25105 10.956 9.3727C10.9749 9.51157 10.9879 9.61331 10.9971 9.7904C11.0024 9.93358 11.0083 10.277 11.0354 10.2711V10.2711Z" fill="#C1694F"/>
</g>
<defs>
<clipPath id="clip0">
<rect width="17.4257" height="19.3778" fill="white" transform="translate(0.128418 0.606384)"/>
</clipPath>
</defs>
</svg>
