<svg width="23" height="20" viewBox="0 0 23 20" fill="none" xmlns="http://www.w3.org/2000/svg">
<path d="M17.7726 0.272739C14.1768 -1.03021 11.248 2.75839 11.248 2.75839C11.248 2.75839 8.44425 -0.857917 4.78866 0.263765C-0.9403 2.02256 -0.427393 9.04879 2.39268 12.6597C5.09133 16.1145 10.7043 19.6213 11.248 19.9731V19.9946C11.248 19.9982 11.2498 20 11.2498 20C11.2498 20 11.2535 19.9946 11.2607 19.9892C11.268 19.9946 11.2571 20 11.2571 20C11.2571 20 11.248 19.9982 11.248 19.9946V19.9731C11.7917 19.6213 17.3866 15.8435 20.0834 12.3887C22.9035 8.77599 23.3457 2.29177 17.7726 0.272739Z" fill="#F2EC4E"/>
</svg>
